custom-analysis
version=1
nRows=4
nColumns=98
inDegrees=no

This file contains tibia displacement and acting force.

Units are S.I. units (seconds, meters, Newtons, ...)
Angles are in degrees.

endheader
time	APT	SIT	knee_angle	aACL_R_force	pACL_R_force	aPCL_R_force	pPCL_R_force	aMCL_R_force	mMCL_R_force	pMCL_R_force	aLCL_R_force	mLCL_R_force	pLCL_R_force	aPCL_L_force	pPCL_L_force	aMCL_L_force	aLCL_L_force	aACL_R_length	pACL_R_length	aPCL_R_length	pPCL_R_length	aMCL_R_length	mMCL_R_length	pMCL_R_length	aLCL_R_length	mLCL_R_length	pLCL_R_length	aPCL_L_length	pPCL_L_length	aMCL_L_length	aLCL_L_length	aACL_R_strain	pACL_R_strain	aPCL_R_strain	pPCL_R_strain	aMCL_R_strain	mMCL_R_strain	pMCL_R_strain	aLCL_R_strain	mLCL_R_strain	pLCL_R_strain	aPCL_L_strain	pPCL_L_strain	aMCL_L_strain	aLCL_L_strain	femur_lat_meniscii_r.femur_lat_r.force.X	femur_lat_meniscii_r.femur_lat_r.force.Y	femur_lat_meniscii_r.femur_lat_r.force.Z	femur_lat_meniscii_r.femur_lat_r.torque.X	femur_lat_meniscii_r.femur_lat_r.torque.Y	femur_lat_meniscii_r.femur_lat_r.torque.Z	femur_lat_meniscii_r.meniscus_lat_r.force.X	femur_lat_meniscii_r.meniscus_lat_r.force.Y	femur_lat_meniscii_r.meniscus_lat_r.force.Z	femur_lat_meniscii_r.meniscus_lat_r.torque.X	femur_lat_meniscii_r.meniscus_lat_r.torque.Y	femur_lat_meniscii_r.meniscus_lat_r.torque.Z	femur_med_meniscii_r.femur_med_r.force.X	femur_med_meniscii_r.femur_med_r.force.Y	femur_med_meniscii_r.femur_med_r.force.Z	femur_med_meniscii_r.femur_med_r.torque.X	femur_med_meniscii_r.femur_med_r.torque.Y	femur_med_meniscii_r.femur_med_r.torque.Z	femur_med_meniscii_r.meniscus_med_r.force.X	femur_med_meniscii_r.meniscus_med_r.force.Y	femur_med_meniscii_r.meniscus_med_r.force.Z	femur_med_meniscii_r.meniscus_med_r.torque.X	femur_med_meniscii_r.meniscus_med_r.torque.Y	femur_med_meniscii_r.meniscus_med_r.torque.Z	femur_med_tibia_r.tibia_upper_r.force.X	femur_med_tibia_r.tibia_upper_r.force.Y	femur_med_tibia_r.tibia_upper_r.force.Z	femur_med_tibia_r.tibia_upper_r.torque.X	femur_med_tibia_r.tibia_upper_r.torque.Y	femur_med_tibia_r.tibia_upper_r.torque.Z	femur_med_tibia_r.femur_med_r.force.X	femur_med_tibia_r.femur_med_r.force.Y	femur_med_tibia_r.femur_med_r.force.Z	femur_med_tibia_r.femur_med_r.torque.X	femur_med_tibia_r.femur_med_r.torque.Y	femur_med_tibia_r.femur_med_r.torque.Z	femur_lat_tibia_r.tibia_upper_r.force.X	femur_lat_tibia_r.tibia_upper_r.force.Y	femur_lat_tibia_r.tibia_upper_r.force.Z	femur_lat_tibia_r.tibia_upper_r.torque.X	femur_lat_tibia_r.tibia_upper_r.torque.Y	femur_lat_tibia_r.tibia_upper_r.torque.Z	femur_lat_tibia_r.femur_lat_r.force.X	femur_lat_tibia_r.femur_lat_r.force.Y	femur_lat_tibia_r.femur_lat_r.force.Z	femur_lat_tibia_r.femur_lat_r.torque.X	femur_lat_tibia_r.femur_lat_r.torque.Y	femur_lat_tibia_r.femur_lat_r.torque.Z	femur_lat_meniscii_force_r	femur_med_meniscii_force_r	femur_lat_tibia_force_r	femur_med_tibia_force_r
      0.12889035	      0.01302781	      0.02043775	     65.77026247	      0.00000000	      0.00000000	    817.28531256	    526.71881103	     45.12173454	      0.00000000	      0.00000000	      0.00000000	      0.00000000	      0.00000000	      0.00000000	      0.00000000	      0.00000001	      0.00000000	      0.03056121	      0.02359799	      0.03626854	      0.03330911	      0.06030353	      0.05932722	      0.05604286	      0.05219509	      0.04714232	      0.04222774	      0.01525851	      0.01651186	      0.06550154	      0.04489616	     -0.01432950	     -0.05829153	      0.16636721	      0.11447173	      0.00460671	     -0.00779815	     -0.04572163	     -0.06756512	     -0.16293508	     -0.19324485	      0.00000079	     -0.32847694	      0.00000060	     -0.00000086	   -132.42039219	     95.31131560	     11.08771789	     -2.30844664	     -7.52735219	     37.18518722	    132.42039219	    -95.31131560	    -11.08771789	      2.74331150	      3.47022156	      2.88396304	    -18.65709759	     23.70929113	      9.08717462	      0.51014529	     -3.21345167	      9.43421837	     18.65709759	    -23.70929113	     -9.08717462	     -0.25581052	     -0.28026014	      0.20338436	    818.66933563	  -1052.66349613	    262.84631764	    -23.29672664	    -17.50178087	      2.53700100	   -818.66933563	   1052.66349613	   -262.84631764	     19.20156615	    121.10563241	    425.13714674	      0.00000000	      0.00000000	      0.00000000	      0.00000000	      0.00000000	      0.00000000	      0.00000000	      0.00000000	      0.00000000	      0.00000000	      0.00000000	      0.00000000	    163.53086754	     31.50864197	      0.00000000	   1359.19391695
      0.12900112	      0.01303150	      0.02046863	     65.85401626	      0.00000000	      0.00000000	    818.68019607	    527.49217511	     44.88765611	      0.00000000	      0.00000000	      0.00000000	      0.00000000	      0.00000000	      0.00000000	      0.00000000	      0.00000001	      0.00000000	      0.03055897	      0.02359788	      0.03627685	      0.03331481	      0.06031036	      0.05932926	      0.05604266	      0.05218776	      0.04713251	      0.04221755	      0.01525851	      0.01651186	      0.06550154	      0.04489616	     -0.01440156	     -0.05829575	      0.16663454	      0.11466238	      0.00472057	     -0.00776411	     -0.04572501	     -0.06769619	     -0.16310941	     -0.19343964	      0.00000079	     -0.32847694	      0.00000060	     -0.00000086	   -132.33496458	     95.62170074	     11.10895744	     -2.31500351	     -7.53265193	     37.31009941	    132.33496458	    -95.62170074	    -11.10895744	      2.75132713	      3.46697713	      2.88337615	    -18.60597893	     23.63668090	      9.00866734	      0.50869961	     -3.18312269	      9.40426598	     18.60597893	    -23.63668090	     -9.00866734	     -0.25606151	     -0.28040911	      0.20503268	    817.29129192	  -1053.48333187	    262.19651039	    -23.28358755	    -17.44710303	      2.55333386	   -817.29129192	   1053.48333187	   -262.19651039	     19.19957285	    120.80366922	    425.45483909	      0.00000000	      0.00000000	      0.00000000	      0.00000000	      0.00000000	      0.00000000	      0.00000000	      0.00000000	      0.00000000	      0.00000000	      0.00000000	      0.00000000	    163.64431380	     31.40113411	      0.00000000	   1358.87423864
      0.12911188	      0.01303511	      0.02049957	     65.93778672	      0.00000000	      0.00000000	    820.07317455	    528.26808401	     44.62781621	      0.00000000	      0.00000000	      0.00000000	      0.00000000	      0.00000000	      0.00000000	      0.00000000	      0.00000001	      0.00000000	      0.03055669	      0.02359775	      0.03628514	      0.03332049	      0.06031716	      0.05933127	      0.05604246	      0.05218037	      0.04712265	      0.04220732	      0.01525851	      0.01651186	      0.06550154	      0.04489616	     -0.01447525	     -0.05830129	      0.16690116	      0.11485262	      0.00483377	     -0.00773050	     -0.04572851	     -0.06782822	     -0.16328451	     -0.19363494	      0.00000079	     -0.32847694	      0.00000060	     -0.00000086	   -132.66011589	     95.74375973	     11.28763875	     -2.31941132	     -7.61323259	     37.35238445	    132.66011589	    -95.74375973	    -11.28763875	      2.76048601	      3.47863908	      2.90178718	    -18.40042101	     23.52261854	      8.98449774	      0.50583831	     -3.17794333	      9.35951190	     18.40042101	    -23.52261854	     -8.98449774	     -0.25372126	     -0.27679752	      0.20180289	    815.46298835	  -1054.37860889	    262.74672530	    -23.31355638	    -17.41271944	      2.55230338	   -815.46298835	   1054.37860889	   -262.74672530	     19.21310319	    120.98717400	    425.80872380	      0.00000000	      0.00000000	      0.00000000	      0.00000000	      0.00000000	      0.00000000	      0.00000000	      0.00000000	      0.00000000	      0.00000000	      0.00000000	      0.00000000	    163.99080665	     31.18670030	      0.00000000	   1358.57645272
      0.12935489	      0.01304274	      0.02056759	     66.12163497	      0.00000000	      0.00000000	    823.09077577	    529.89562168	     44.07144302	      0.00000000	      0.00000000	      0.00000000	      0.00000000	      0.00000000	      0.00000000	      0.00000000	      0.00000001	      0.00000000	      0.03055151	      0.02359733	      0.03630324	      0.03333292	      0.06033192	      0.05933559	      0.05604198	      0.05216396	      0.04710085	      0.04218480	      0.01525851	      0.01651186	      0.06550154	      0.04489616	     -0.01464228	     -0.05831768	      0.16748334	      0.11526840	      0.00507977	     -0.00765827	     -0.04573657	     -0.06812124	     -0.16367143	     -0.19406527	      0.00000079	     -0.32847694	      0.00000060	     -0.00000086	   -133.24834752	     96.13799117	     11.61183643	     -2.32988776	     -7.75933809	     37.49759015	    133.24834752	    -96.13799117	    -11.61183643	      2.78008553	      3.49962332	      2.93602544	    -18.14306591	     23.34391029	      8.85238289	      0.50197805	     -3.13117895	      9.28787569	     18.14306591	    -23.34391029	     -8.85238289	     -0.25270917	     -0.27318759	      0.20038638	    813.28629822	  -1057.61862085	    261.16869609	    -23.30130600	    -17.29818205	      2.58335185	   -813.28629822	   1057.61862085	   -261.16869609	     19.23175999	    120.27239875	    427.08971669	      0.00000000	      0.00000000	      0.00000000	      0.00000000	      0.00000000	      0.00000000	      0.00000000	      0.00000000	      0.00000000	      0.00000000	      0.00000000	      0.00000000	    164.71936804	     30.86217217	      0.00000000	   1359.48550484
